<svg width="100" height="100" viewBox="0 0 100 100" fill="none" xmlns="http://www.w3.org/2000/svg">
<path fill-rule="evenodd" clip-rule="evenodd" d="M49.9999 91.6667C73.0118 91.6667 91.6666 73.0119 91.6666 50C91.6666 26.9881 73.0118 8.33334 49.9999 8.33334C26.9881 8.33334 8.33325 26.9881 8.33325 50C8.33325 73.0119 26.9881 91.6667 49.9999 91.6667ZM53.1249 37.5C53.1249 35.7741 51.7258 34.375 49.9999 34.375C48.274 34.375 46.8749 35.7741 46.8749 37.5L46.8749 46.8751H37.4999C35.774 46.8751 34.3749 48.2742 34.3749 50.0001C34.3749 51.726 35.774 53.1251 37.4999 53.1251H46.8749V62.5C46.8749 64.2259 48.274 65.625 49.9999 65.625C51.7258 65.625 53.1249 64.2259 53.1249 62.5L53.1249 53.1251H62.4999C64.2258 53.1251 65.6249 51.726 65.6249 50.0001C65.6249 48.2742 64.2258 46.8751 62.4999 46.8751H53.1249V37.5Z" fill="#7D3DAF"/>
</svg>
